<svg xmlns="http://www.w3.org/2000/svg" viewBox="0 0 398 12.93"><defs><style>.cls-1{fill:#fff;stroke:#000;stroke-miterlimit:10;stroke-width:0.53px;}</style></defs><title>Asset 1</title><g id="Layer_2" data-name="Layer 2"><g id="Layer_1-2" data-name="Layer 1"><line class="cls-1" y1="6.46" x2="152" y2="6.46"/><line class="cls-1" x1="246" y1="6.46" x2="398" y2="6.46"/><path d="M160.21.11h.36V12.78h-.36Z"/><path d="M172.22.13V12.78h-.36L164,.77v12h-.36V.13H164l7.87,12V.13Z"/><path d="M183.86.13V12.78h-.36l-7.87-12v12h-.36V.13h.36l7.87,12V.13Z"/><path d="M192.52,12.93c-3.53,0-6-2.67-6-6.46S189,0,192.52,0s6,2.66,6,6.46S196,12.93,192.52,12.93Zm0-.32c3.15,0,5.67-2.32,5.67-6.14S195.67.32,192.52.32s-5.67,2.32-5.67,6.14S189.37,12.6,192.52,12.6Z"/><path d="M209.85.11h.4l-4.86,12.68H205L200.19.11h.41l4.61,12.14Z"/><path d="M219.34,9.29h-6.27l-1.33,3.49h-.41L216,.49h.36l4.68,12.3h-.41Zm-3.13-8.23-3,7.9h6Z"/><path d="M222,.11h7.74V.43H226V12.78h-.36V.43H222Z"/><path d="M237.79.43H232V6.28h5.29v.32H232v5.85h5.83v.32H231.6V.11h6.19Z"/></g></g></svg>