<svg version="1.2" baseProfile="tiny" xmlns="http://www.w3.org/2000/svg" width="221.25" height="48" viewBox="0 0 221.25 48"><g fill="#FDF8F6"><path d="M87.629 19.842l-3.902 1.986 3.154 1.567-38.845 19.302L9.311 23.395l2.856-1.564-3.887-1.979-6.976 3.543 46.732 23.306 46.852-23.306z"/><path d="M77.785 14.749l-3.824 1.947 3.372 1.686-29.297 14.647-29.297-14.647 3.291-1.586-3.788-1.929-7.202 3.597 36.996 18.569 37.071-18.578z"/><path d="M48.036 17.519L65.71 8.657 48.036-.27l-17.6 8.913 17.6 8.876zm9.782-8.895l-3.223 1.612-6.56 3.279-6.559-3.279-3.223-1.612 9.782-4.891 9.783 4.891z"/><path d="M68.232 9.925l-3.871 1.971 2.827 1.413-19.152 9.576-19.152-9.576 2.759-1.439-3.847-1.958-6.676 3.448 26.916 13.528 23.155-11.577 3.834-1.949z"/></g><path d="M115.189 32.84l-7.321-16.663h3.009l4.312 9.837 4.312-9.837h3.009l-7.321 16.663zm17.247-16.686c1.153 0 2.235.217 3.245.651a8.386 8.386 0 0 1 2.65 1.785 8.433 8.433 0 0 1 1.786 2.65 8.139 8.139 0 0 1 .65 3.245 8.15 8.15 0 0 1-.65 3.245 8.427 8.427 0 0 1-1.786 2.65 8.392 8.392 0 0 1-2.65 1.785 8.115 8.115 0 0 1-3.245.651 8.131 8.131 0 0 1-3.244-.651c-1.012-.434-1.895-1.029-2.65-1.785s-1.355-1.64-1.797-2.65a8.022 8.022 0 0 1-.662-3.245c0-1.152.221-2.234.662-3.245a8.549 8.549 0 0 1 1.797-2.65 8.386 8.386 0 0 1 2.65-1.785 8.141 8.141 0 0 1 3.244-.651zm0 13.924c.764 0 1.486-.146 2.168-.438a5.74 5.74 0 0 0 1.785-1.19 5.5 5.5 0 0 0 1.201-1.773 5.484 5.484 0 0 0 .438-2.19c0-.778-.145-1.504-.438-2.178a5.654 5.654 0 0 0-2.986-2.976 5.448 5.448 0 0 0-2.168-.438c-.778 0-1.508.146-2.189.438a5.643 5.643 0 0 0-2.986 2.976 5.42 5.42 0 0 0-.438 2.178c0 .779.146 1.508.438 2.19s.692 1.272 1.201 1.773c.509.502 1.104.898 1.785 1.19s1.41.438 2.189.438zm11.127 2.762V16.177h2.448v14.216h7.164v2.447h-9.612zm25.097-1.414c-.734.434-1.382.756-1.943.965a6.909 6.909 0 0 1-1.785.404c-1.242.135-2.418.004-3.525-.393a8.623 8.623 0 0 1-2.924-1.74 8.466 8.466 0 0 1-1.999-2.729 7.923 7.923 0 0 1-.736-3.38c0-1.168.223-2.275.669-3.323a8.267 8.267 0 0 1 1.875-2.74 8.183 8.183 0 0 1 2.857-1.785c1.1-.412 2.316-.573 3.648-.483.524.03 1.021.116 1.494.258.471.143.901.311 1.291.505l-1.078 2.156c-.494-.224-.913-.367-1.258-.427a6.838 6.838 0 0 0-1.168-.09c-.778 0-1.523.161-2.234.483a6.289 6.289 0 0 0-3.166 3.167 5.355 5.355 0 0 0-.482 2.234c0 .794.164 1.546.494 2.257.328.711.766 1.336 1.313 1.875s1.172.969 1.876 1.291a5.226 5.226 0 0 0 2.2.482c.284 0 .551-.011.798-.033s.494-.067.741-.135c.246-.067.501-.16.763-.281.263-.119.558-.276.888-.471l1.391 1.933zm14.698 1.414l-.966-2.268h-7.748l-.965 2.268h-2.471l7.321-16.663 7.321 16.663h-2.492zm-7.657-4.716h5.636l-2.807-6.58-2.829 6.58zm22.625-1.415V16.177h2.448V32.84l-9.903-10.128V32.84h-2.448V16.177l9.903 10.532zM211.7 16.154c1.151 0 2.234.217 3.245.651a8.381 8.381 0 0 1 2.649 1.785 8.4 8.4 0 0 1 1.786 2.65 8.139 8.139 0 0 1 .65 3.245 8.15 8.15 0 0 1-.65 3.245 8.394 8.394 0 0 1-1.786 2.65 8.387 8.387 0 0 1-2.649 1.785 8.126 8.126 0 0 1-3.245.651 8.133 8.133 0 0 1-3.245-.651c-1.011-.434-1.895-1.029-2.65-1.785s-1.354-1.64-1.797-2.65a8.022 8.022 0 0 1-.662-3.245c0-1.152.221-2.234.662-3.245a8.566 8.566 0 0 1 1.797-2.65 8.397 8.397 0 0 1 2.65-1.785 8.15 8.15 0 0 1 3.245-.651zm0 13.924c.764 0 1.485-.146 2.167-.438s1.275-.688 1.785-1.19a5.5 5.5 0 0 0 1.201-1.773 5.501 5.501 0 0 0 .438-2.19 5.42 5.42 0 0 0-.438-2.178c-.293-.674-.691-1.265-1.201-1.774s-1.104-.91-1.785-1.202-1.403-.438-2.167-.438c-.778 0-1.509.146-2.189.438a5.636 5.636 0 0 0-2.987 2.976 5.42 5.42 0 0 0-.438 2.178c0 .779.146 1.508.438 2.19s.692 1.272 1.201 1.773c.51.502 1.104.898 1.786 1.19.68.292 1.411.438 2.189.438z" fill="#FDF8F6"/></svg>